<svg width="160" height="160" viewBox="0 0 160 160" fill="none" xmlns="http://www.w3.org/2000/svg">
  <defs>
    <linearGradient id="bgA" x1="0" y1="0" x2="160" y2="160" gradientUnits="userSpaceOnUse">
      <stop stop-color="#1E4C3C"/>
      <stop offset="1" stop-color="#14362A"/>
    </linearGradient>
  </defs>
  <rect width="160" height="160" rx="80" fill="url(#bgA)"/>
  <circle cx="80" cy="60" r="24" fill="#F1CFB6"/>
  <path d="M42 132c8-24 22-36 38-36s30 12 38 36H42z" fill="#E8F3EC"/>
  <path d="M56 64c0-18 11-32 24-32h2c14 0 24 14 24 32-4-10-12-16-25-16-13 0-21 6-25 16z" fill="#122C22"/>
  <path d="M60 78c6 10 14 14 20 14 8 0 16-4 20-14" stroke="#F1CFB6" stroke-width="6" stroke-linecap="round"/>
</svg>
